<?xml version="1.0" encoding="UTF-8" standalone="no"?><!DOCTYPE svg PUBLIC "-//W3C//DTD SVG 1.1//EN" "http://www.w3.org/Graphics/SVG/1.1/DTD/svg11.dtd"><svg width="100%" height="100%" viewBox="0 0 100 100" version="1.1" xmlns="http://www.w3.org/2000/svg" xmlns:xlink="http://www.w3.org/1999/xlink" xml:space="preserve" xmlns:serif="http://www.serif.com/" style="fill-rule:evenodd;clip-rule:evenodd;stroke-linecap:round;stroke-linejoin:round;stroke-miterlimit:1.5;"><path d="M7.492,22.77c25.694,-4.84 42.474,8.534 42.474,8.534" style="fill:none;stroke:#b0af82;stroke-width:4.17px;"/><path d="M7.602,74.409c25.694,-4.84 42.474,8.534 42.474,8.534" style="fill:none;stroke:#b0af82;stroke-width:4.17px;"/><rect x="39.029" y="68.431" width="4.873" height="9.507" style="fill:#b0af82;"/><path d="M7.407,22.772l0.038,51.685" style="fill:none;stroke:#b0af82;stroke-width:4.17px;"/><path d="M93.792,22.77c-26.377,-4.84 -43.603,8.534 -43.603,8.534" style="fill:none;stroke:#b0af82;stroke-width:4.17px;"/><path d="M93.679,74.409c-26.376,-4.84 -43.603,8.534 -43.603,8.534" style="fill:none;stroke:#b0af82;stroke-width:4.17px;"/><path d="M93.879,22.772l-0.039,51.685" style="fill:none;stroke:#b0af82;stroke-width:4.17px;"/><path d="M49.653,31.069l-0.111,49.384" style="fill:none;stroke:#b0af82;stroke-width:4.17px;"/><rect x="7.522" y="25.112" width="31.668" height="35.805" style="fill:#b0af82;"/><rect x="45.3" y="37.669" width="9.578" height="40.711" style="fill:#b0af82;"/><rect x="7.967" y="31.389" width="50.223" height="41.28" style="fill:#b0af82;"/><rect x="51.164" y="31.619" width="41.616" height="41.409" style="fill:#b0af82;"/><rect x="52.006" y="29.359" width="41.572" height="20.156" style="fill:#b0af82;"/><rect x="62.512" y="23.269" width="30.328" height="14.423" style="fill:#b0af82;"/><rect x="52.345" y="29.948" width="11.123" height="6.65" style="fill:#b0af82;"/><rect x="59.353" y="25.542" width="4.461" height="6.054" style="fill:#b0af82;"/><rect x="53.809" y="28.172" width="6.054" height="4.752" style="fill:#b0af82;"/><rect x="50.596" y="74.776" width="3.532" height="6.55" style="fill:#b0af82;"/><rect x="47.189" y="75.771" width="2.985" height="4.905" style="fill:#b0af82;"/><rect x="38.448" y="64.864" width="31.528" height="9.662" style="fill:#b0af82;"/><rect x="57.164" y="47.418" width="4.653" height="29.065" style="fill:#b0af82;"/><rect x="52.847" y="70.539" width="5.288" height="8.306" style="fill:#b0af82;"/><rect x="50.352" y="69.628" width="14.798" height="5.33" style="fill:#b0af82;"/><rect x="45.312" y="78.275" width="6.391" height="1.779" style="fill:#b0af82;"/><rect x="31.087" y="60.382" width="21.964" height="13.626" style="fill:#b0af82;"/><rect x="41.956" y="50.853" width="16.747" height="27.191" style="fill:#b0af82;"/><rect x="35.306" y="72.855" width="7.757" height="2.271" style="fill:#b0af82;"/><rect x="8.334" y="23.125" width="21.271" height="15.502" style="fill:#b0af82;"/><rect x="34.857" y="26.619" width="7.466" height="12.057" style="fill:#b0af82;"/><rect x="36.802" y="28.91" width="11.658" height="13.438" style="fill:#b0af82;"/><rect x="20.759" y="22.685" width="12.444" height="10.021" style="fill:#b0af82;"/></svg>